<?xml version="1.0" encoding="UTF-8" standalone="yes"?>
<svg width="256" height="256" viewBox="0 0 256 256" fill="none" version="1.2" baseProfile="tiny-ps" xmlns="http://www.w3.org/2000/svg">
  <title>bimi-svg-tiny-12-ps</title>
  <rect width="256" height="256" fill="white"/>
  <circle cx="128" cy="128" r="125" fill="white" stroke="#4C6DF6" stroke-width="6"/>
  <path d="M28.2095 147.2V115.782H35.389V121.018H35.7163C36.289 119.205 37.2708 117.807 38.6617 116.825C40.0663 115.83 41.6686 115.332 43.4686 115.332C43.8777 115.332 44.3345 115.352 44.839 115.393C45.3572 115.421 45.7867 115.468 46.1277 115.536V122.348C45.814 122.239 45.3163 122.143 44.6345 122.061C43.9663 121.966 43.3186 121.918 42.6913 121.918C41.3413 121.918 40.1277 122.211 39.0504 122.798C37.9867 123.371 37.1481 124.168 36.5345 125.191C35.9208 126.214 35.614 127.393 35.614 128.73V147.2H28.2095Z" fill="#111111"/>
  <path d="M79.0788 124.086L72.3288 124.823C72.1379 124.141 71.8038 123.5 71.3265 122.9C70.8629 122.3 70.2356 121.816 69.4447 121.448C68.6538 121.08 67.6856 120.896 66.5402 120.896C64.9992 120.896 63.7038 121.23 62.6538 121.898C61.6174 122.566 61.1061 123.432 61.1197 124.496C61.1061 125.409 61.4402 126.152 62.122 126.725C62.8174 127.298 63.9629 127.768 65.5583 128.136L70.9174 129.282C73.8902 129.923 76.0992 130.939 77.5447 132.33C79.0038 133.721 79.7402 135.541 79.7538 137.791C79.7402 139.768 79.1606 141.514 78.0152 143.027C76.8833 144.527 75.3083 145.7 73.2902 146.546C71.272 147.391 68.9538 147.814 66.3356 147.814C62.4902 147.814 59.3947 147.009 57.0492 145.4C54.7038 143.777 53.3061 141.521 52.8561 138.63L60.0765 137.934C60.4038 139.352 61.0992 140.423 62.1629 141.146C63.2265 141.868 64.6106 142.23 66.3152 142.23C68.0742 142.23 69.4856 141.868 70.5492 141.146C71.6265 140.423 72.1652 139.53 72.1652 138.466C72.1652 137.566 71.8174 136.823 71.122 136.236C70.4402 135.65 69.3765 135.2 67.9311 134.886L62.572 133.761C59.5583 133.134 57.3288 132.077 55.8833 130.591C54.4379 129.091 53.722 127.196 53.7356 124.905C53.722 122.968 54.247 121.291 55.3106 119.873C56.3879 118.441 57.8811 117.336 59.7902 116.559C61.7129 115.768 63.9288 115.373 66.4379 115.373C70.1197 115.373 73.0174 116.157 75.1311 117.725C77.2583 119.293 78.5742 121.414 79.0788 124.086Z" fill="#111111"/>
  <path d="M96.464 105.309V147.2H89.0595V105.309H96.464Z" fill="#111111"/>
  <path d="M114.683 128.791V147.2H107.278V115.782H114.355V121.121H114.724C115.446 119.361 116.599 117.964 118.18 116.927C119.776 115.891 121.746 115.373 124.092 115.373C126.26 115.373 128.149 115.836 129.758 116.764C131.38 117.691 132.635 119.034 133.521 120.793C134.421 122.552 134.865 124.686 134.851 127.196V147.2H127.446V128.341C127.446 126.241 126.901 124.598 125.81 123.411C124.733 122.225 123.24 121.632 121.33 121.632C120.035 121.632 118.883 121.918 117.874 122.491C116.878 123.05 116.094 123.861 115.521 124.925C114.962 125.989 114.683 127.277 114.683 128.791Z" fill="#111111"/>
  <path d="M150.14 147.65C148.899 147.65 147.835 147.214 146.949 146.341C146.062 145.468 145.626 144.405 145.64 143.15C145.626 141.923 146.062 140.873 146.949 140C147.835 139.127 148.899 138.691 150.14 138.691C151.34 138.691 152.383 139.127 153.269 140C154.169 140.873 154.626 141.923 154.64 143.15C154.626 143.982 154.408 144.739 153.985 145.421C153.576 146.102 153.03 146.648 152.349 147.057C151.68 147.452 150.944 147.65 150.14 147.65Z" fill="#4C6DF6"/>
  <path d="M165.484 147.2V115.782H172.889V147.2H165.484ZM169.207 111.323C168.034 111.323 167.025 110.934 166.18 110.157C165.334 109.366 164.912 108.418 164.912 107.314C164.912 106.196 165.334 105.248 166.18 104.471C167.025 103.68 168.034 103.284 169.207 103.284C170.394 103.284 171.403 103.68 172.234 104.471C173.08 105.248 173.503 106.196 173.503 107.314C173.503 108.418 173.08 109.366 172.234 110.157C171.403 110.934 170.394 111.323 169.207 111.323Z" fill="#111111"/>
  <path d="M183.703 147.2V115.782H190.78V121.121H191.149C191.803 119.321 192.887 117.916 194.401 116.907C195.915 115.884 197.721 115.373 199.821 115.373C201.949 115.373 203.742 115.891 205.201 116.927C206.674 117.95 207.71 119.348 208.31 121.121H208.637C209.333 119.375 210.505 117.984 212.155 116.948C213.819 115.898 215.79 115.373 218.067 115.373C220.958 115.373 223.317 116.286 225.144 118.114C226.971 119.941 227.885 122.607 227.885 126.111V147.2H220.46V127.257C220.46 125.307 219.942 123.882 218.905 122.982C217.869 122.068 216.601 121.611 215.101 121.611C213.315 121.611 211.917 122.171 210.908 123.289C209.912 124.393 209.415 125.832 209.415 127.605V147.2H202.153V126.95C202.153 125.327 201.662 124.032 200.68 123.064C199.712 122.096 198.444 121.611 196.876 121.611C195.812 121.611 194.844 121.884 193.971 122.43C193.099 122.961 192.403 123.718 191.885 124.7C191.367 125.668 191.108 126.8 191.108 128.096V147.2H183.703Z" fill="#111111"/>
</svg>