<?xml version="1.0" encoding="utf-8"?>
<!-- Generator: Adobe Illustrator 28.1.0, SVG Export Plug-In . SVG Version: 6.00 Build 0)  -->
<svg version="1.1" id="Layer_1" xmlns="http://www.w3.org/2000/svg" xmlns:xlink="http://www.w3.org/1999/xlink" x="0px" y="0px"
	 viewBox="0 0 32 32" style="enable-background:new 0 0 32 32;" xml:space="preserve">
<style type="text/css">
	.st0{fill:#4B6CF7;}
	.st1{enable-background:new    ;}
	.st2{fill:#FFFFFF;}
</style>
<path class="st0" d="M8,0h16c4.4,0,8,3.6,8,8v16c0,4.4-3.6,8-8,8H8c-4.4,0-8-3.6-8-8V8C0,3.6,3.6,0,8,0z"/>
<g class="st1">
	<path class="st2" d="M6.3,25.1L2.8,12.3l5.5-1.5c1.3-0.4,2.4-0.5,3.1-0.5c0.7,0,1.3,0.3,1.9,0.8c0.6,0.5,0.8,1.1,1.1,1.9
		c0.2,0.9,0.2,1.8-0.2,2.6c-0.5,0.8-1.2,1.4-2.2,1.9c0.6,0.2,1.2,0.4,1.6,0.7c0.5,0.3,1.1,0.9,2,1.7l2.2,2.1l-3.1,0.8l-2.5-2.2
		c-0.9-0.9-1.6-1.3-1.8-1.5c-0.3-0.3-0.6-0.3-1-0.3c-0.3-0.2-0.8,0-1.3,0.1l-0.5,0.1L9,24.4L6.3,25.1z M7,17l2-0.5
		c1.2-0.3,2-0.7,2.3-0.8s0.4-0.4,0.6-0.7s0.1-0.7,0.1-1c-0.1-0.4-0.3-0.8-0.6-0.9c-0.3-0.3-0.6-0.3-1.1-0.3
		c-0.2,0.1-0.8,0.2-1.9,0.5l-2.1,0.6L7.2,17L7,17z"/>
	<path class="st2" d="M19.3,21.7L15.8,8.8l2.6-0.7l7.5,7.1l-2.3-8.5L26,6.1l3.5,12.9l-2.6,0.7l-7.4-7l2.2,8.3L19.3,21.7z"/>
</g>
<circle class="st2" cx="21.7" cy="26" r="2.3"/>
</svg>
