<svg width="21" height="13" viewBox="0 0 21 13" fill="none" xmlns="http://www.w3.org/2000/svg">
<path d="M18.07 0.640616H13V2.05062H18.09L18.07 0.640616ZM17 10.3406C16.6154 10.5955 16.1612 10.7247 15.7 10.7106C15.3947 10.7424 15.0862 10.7109 14.7937 10.618C14.5011 10.5251 14.2309 10.3728 14 10.1706C13.5739 9.68596 13.3518 9.05531 13.38 8.41062H20C20.0472 7.73917 19.9899 7.06446 19.83 6.41062C19.6744 5.7888 19.403 5.20189 19.03 4.68062C18.6534 4.17593 18.1681 3.76239 17.61 3.47062C16.9881 3.16524 16.3028 3.01105 15.61 3.02062C14.9584 3.01638 14.3124 3.14217 13.71 3.39062C13.1584 3.62287 12.6586 3.96284 12.24 4.39062C11.8224 4.82673 11.499 5.34413 11.29 5.91062C11.0657 6.52217 10.9539 7.16926 10.96 7.82062C10.9493 8.48125 11.0577 9.13842 11.28 9.76062C11.4695 10.3237 11.7685 10.8437 12.16 11.2906C12.5659 11.7288 13.0648 12.0705 13.62 12.2906C14.2391 12.5265 14.8976 12.6419 15.56 12.6306C16.4894 12.6596 17.407 12.4163 18.2 11.9306C19.0015 11.3621 19.5783 10.5305 19.83 9.58062H17.62C17.5017 9.89475 17.284 10.1616 17 10.3406ZM13.57 6.22062C13.6478 5.9713 13.777 5.74105 13.9493 5.5447C14.1215 5.34835 14.3329 5.19026 14.57 5.08062C14.8842 4.93996 15.2259 4.87161 15.57 4.88062C15.8186 4.85938 16.0689 4.89218 16.3036 4.97676C16.5384 5.06134 16.7521 5.1957 16.93 5.37062C17.2702 5.78628 17.4883 6.28826 17.56 6.82062H13.41C13.4262 6.6174 13.463 6.41636 13.52 6.22062H13.57ZM8.28 5.74062C8.78896 5.52868 9.23121 5.18317 9.56 4.74062C9.86343 4.27116 10.0137 3.7191 9.99 3.16062C10.0089 2.65151 9.90961 2.14495 9.7 1.68062C9.52331 1.27853 9.23968 0.932642 8.88 0.680616C8.49925 0.41748 8.06596 0.240068 7.61 0.160616C7.07087 0.0472099 6.52088 -0.00644703 5.97 0.000616451H0V12.5806H6.1C6.65666 12.5805 7.21106 12.5099 7.75 12.3706C8.26041 12.2375 8.74413 12.0177 9.18 11.7206C9.60257 11.4293 9.94618 11.0375 10.18 10.5806C10.4403 10.0706 10.5676 9.503 10.55 8.93062C10.5689 8.22135 10.37 7.52333 9.98 6.93062C9.56059 6.33454 8.93852 5.91153 8.23 5.74062H8.28ZM2.77 2.15062H5.36C5.59798 2.14946 5.83559 2.16954 6.07 2.21062C6.28622 2.24155 6.49381 2.31642 6.68 2.43062C6.86035 2.53263 7.00648 2.68572 7.1 2.87062C7.21673 3.092 7.27198 3.34063 7.26 3.59062C7.27863 3.80585 7.24572 4.02243 7.16399 4.22242C7.08225 4.4224 6.95405 4.60004 6.79 4.74062C6.43212 4.98665 6.00388 5.1095 5.57 5.09062H2.77V2.15062ZM7.61 9.59062C7.50646 9.79388 7.35127 9.96632 7.16 10.0906C6.9603 10.2148 6.74027 10.3028 6.51 10.3506C6.2541 10.4082 5.99226 10.435 5.73 10.4306H2.73V6.98062H5.73C6.24482 6.95807 6.75322 7.10183 7.18 7.39062C7.37281 7.56365 7.52217 7.77965 7.61599 8.02113C7.7098 8.26262 7.74543 8.5228 7.72 8.78062C7.74594 9.05548 7.7083 9.33263 7.61 9.59062Z" fill="#333333"/>
</svg>
