<svg width="24" height="24" viewBox="0 0 24 24" fill="none" xmlns="http://www.w3.org/2000/svg">
<path fill-rule="evenodd" clip-rule="evenodd" d="M10.687 14.3626C11.2274 14.1227 11.6918 13.7395 12.03 13.2546C12.3482 12.7275 12.505 12.1188 12.481 11.5036C12.5024 10.9411 12.3985 10.381 12.177 9.86358C11.9961 9.42284 11.6988 9.03953 11.317 8.75458C10.917 8.46458 10.462 8.26758 9.984 8.17858C9.41945 8.05313 8.84228 7.9934 8.264 8.00058H2.3C2.22044 8.00058 2.14413 8.03218 2.08787 8.08845C2.03161 8.14471 2 8.22101 2 8.30058V21.6416C2 21.7211 2.03161 21.7974 2.08787 21.8537C2.14413 21.91 2.22044 21.9416 2.3 21.9416H8.4C8.984 21.9416 9.566 21.8636 10.13 21.7086C10.6692 21.5598 11.1775 21.316 11.631 20.9886C12.079 20.6597 12.4395 20.2261 12.681 19.7256C12.9545 19.1556 13.0875 18.5285 13.069 17.8966C13.0901 17.1153 12.8819 16.3449 12.47 15.6806C12.0425 15.0285 11.3883 14.5582 10.634 14.3606L10.687 14.3626ZM5.05 10.2506C4.99696 10.2506 4.94609 10.2716 4.90858 10.3092C4.87107 10.3467 4.85 10.3975 4.85 10.4506V13.5506C4.85 13.6606 4.94 13.7506 5.05 13.7506H7.85C8.31413 13.7506 8.75925 13.5662 9.08744 13.238C9.41563 12.9098 9.6 12.4647 9.6 12.0006C9.6 11.5364 9.41563 11.0913 9.08744 10.7631C8.75925 10.435 8.31413 10.2506 7.85 10.2506H5.05ZM4.85 15.7006C4.85 15.5906 4.94 15.5006 5.05 15.5006H7.975C8.53858 15.5006 9.07909 15.7245 9.4776 16.123C9.87612 16.5215 10.1 17.062 10.1 17.6256C10.1 18.1892 9.87612 18.7297 9.4776 19.1282C9.07909 19.5267 8.53858 19.7506 7.975 19.7506H5.05C4.99696 19.7506 4.94609 19.7295 4.90858 19.692C4.87107 19.6545 4.85 19.6036 4.85 19.5506V15.7006Z" fill="black"/>
<path d="M15.9406 8.71045H20.6636C20.7425 8.71044 20.8182 8.7415 20.8744 8.7969C20.9305 8.8523 20.9626 8.92758 20.9636 9.00645L20.9766 9.96845C20.9772 10.0082 20.9698 10.0476 20.9549 10.0845C20.9401 10.1213 20.9181 10.1549 20.8902 10.1832C20.8623 10.2115 20.829 10.2339 20.7924 10.2492C20.7557 10.2646 20.7164 10.2725 20.6766 10.2724H15.9406C15.8611 10.2724 15.7848 10.2408 15.7285 10.1846C15.6722 10.1283 15.6406 10.052 15.6406 9.97245V9.01045C15.6406 8.93088 15.6722 8.85458 15.7285 8.79832C15.7848 8.74206 15.8611 8.71045 15.9406 8.71045Z" fill="black"/>
<path fill-rule="evenodd" clip-rule="evenodd" d="M18.4738 19.8706C18.9606 19.885 19.4388 19.7411 19.8368 19.4606C20.0968 19.2876 20.3038 19.0406 20.4348 18.7486C20.4517 18.7109 20.4789 18.6787 20.5132 18.6557C20.5475 18.6327 20.5876 18.6199 20.6288 18.6186H22.5498C22.6798 18.6186 22.7758 18.7406 22.7368 18.8646C22.4521 19.8037 21.8781 20.6289 21.0968 21.2226C20.2744 21.758 19.3077 22.0285 18.3268 21.9976C17.6298 22.01 16.9374 21.8821 16.2908 21.6216C15.7029 21.3731 15.1793 20.9938 14.7598 20.5126C14.3447 20.013 14.0308 19.4373 13.8358 18.8176C13.6023 18.1253 13.489 17.3981 13.5008 16.6676C13.4943 15.9473 13.6113 15.2313 13.8468 14.5506C14.0623 13.928 14.401 13.3553 14.8428 12.8666C15.2763 12.3957 15.8014 12.0183 16.3858 11.7576C17.0142 11.483 17.6931 11.3433 18.3788 11.3476C19.1092 11.3375 19.8305 11.5093 20.4778 11.8476C21.0699 12.1752 21.5795 12.6335 21.9678 13.1876C22.3588 13.7656 22.6438 14.4156 22.8068 15.1046C22.9746 15.8309 23.0346 16.5779 22.9848 17.3216H16.0398C16.0064 18.0298 16.2382 18.7251 16.6898 19.2716C16.9318 19.4956 17.2158 19.6646 17.5228 19.7676C17.8298 19.8706 18.1538 19.9056 18.4738 19.8706ZM16.1018 15.3996C16.1017 15.4129 16.1042 15.4261 16.1093 15.4384C16.1143 15.4507 16.1217 15.4619 16.1311 15.4713C16.1405 15.4807 16.1517 15.4881 16.164 15.4932C16.1764 15.4982 16.1895 15.5007 16.2028 15.5006H20.2508C20.2641 15.5007 20.2773 15.4982 20.2897 15.4932C20.302 15.4881 20.3132 15.4807 20.3226 15.4713C20.332 15.4619 20.3394 15.4507 20.3444 15.4384C20.3495 15.4261 20.352 15.4129 20.3518 15.3996C20.3518 14.8628 20.1386 14.348 19.759 13.9684C19.3795 13.5888 18.8646 13.3756 18.3278 13.3756H18.1258C17.589 13.3756 17.0742 13.5888 16.6947 13.9684C16.3151 14.348 16.1018 14.8628 16.1018 15.3996Z" fill="black"/>
</svg>
