<svg width="13" height="17" viewBox="0 0 13 17" fill="none" xmlns="http://www.w3.org/2000/svg">
<path d="M8.19696 14.9784L7.62009 15.5927L8.19696 16.207L8.77383 15.5927L8.19696 14.9784ZM1.66945 0.207031C1.45305 0.207031 1.24552 0.298576 1.0925 0.461527C0.93948 0.624478 0.853516 0.845488 0.853516 1.07594C0.853516 1.30638 0.93948 1.52739 1.0925 1.69034C1.24552 1.85329 1.45305 1.94484 1.66945 1.94484V0.207031ZM4.08103 10.6725C3.77711 10.9961 3.77711 11.5003 4.08103 11.8239L7.62009 15.5927L8.77383 14.3641L5.30724 10.6725C4.97505 10.3187 4.41322 10.3187 4.08103 10.6725V10.6725ZM8.77383 15.5927L12.3129 11.8239C12.6168 11.5003 12.6168 10.9961 12.3129 10.6725V10.6725C11.9807 10.3187 11.4189 10.3187 11.0867 10.6725L7.62009 14.3641L8.77383 15.5927ZM9.0129 14.9784V6.28936H7.38102V14.9784H9.0129ZM3.30133 0.207031H1.66945V1.94484H3.30133V0.207031ZM9.0129 6.28936C9.0129 4.67623 8.41114 3.12916 7.34002 1.9885C6.26889 0.847846 4.81613 0.207031 3.30133 0.207031V1.94484C4.38333 1.94484 5.42102 2.40256 6.18611 3.21732C6.9512 4.03208 7.38102 5.13712 7.38102 6.28936H9.0129Z" fill="#333333"/>
</svg>
