<svg width="18" height="18" viewBox="0 0 18 18" fill="none" xmlns="http://www.w3.org/2000/svg">
<path fill-rule="evenodd" clip-rule="evenodd" d="M5.11812 0.05225C6.04675 0.00949999 6.34283 0 8.70833 0C11.0738 0 11.3699 0.0102917 12.2977 0.05225C13.2256 0.0942083 13.8589 0.24225 14.4131 0.456792C14.9934 0.676083 15.5198 1.01887 15.9552 1.46221C16.3986 1.89683 16.7406 2.4225 16.9591 3.00358C17.1744 3.55775 17.3217 4.19108 17.3644 5.11733C17.4072 6.04754 17.4167 6.34362 17.4167 8.70833C17.4167 11.073 17.4064 11.3699 17.3644 12.2985C17.3225 13.2248 17.1744 13.8581 16.9591 14.4123C16.7405 14.9934 16.3979 15.5199 15.9552 15.9552C15.5198 16.3986 14.9934 16.7406 14.4131 16.9591C13.8589 17.1744 13.2256 17.3217 12.2993 17.3644C11.3699 17.4072 11.0738 17.4167 8.70833 17.4167C6.34283 17.4167 6.04675 17.4064 5.11812 17.3644C4.19187 17.3225 3.55854 17.1744 3.00437 16.9591C2.42326 16.7405 1.89674 16.3979 1.46142 15.9552C1.01854 15.5202 0.675723 14.994 0.456792 14.4131C0.24225 13.8589 0.095 13.2256 0.05225 12.2993C0.00949999 11.3691 0 11.073 0 8.70833C0 6.34362 0.0102917 6.04675 0.05225 5.11892C0.0942083 4.19108 0.24225 3.55775 0.456792 3.00358C0.675955 2.42261 1.01905 1.89635 1.46221 1.46142C1.89699 1.01864 2.42297 0.675825 3.00358 0.456792C3.55775 0.24225 4.19187 0.095 5.11812 0.05225ZM12.2265 1.61975C11.3082 1.57779 11.0327 1.56908 8.70754 1.56908C6.38242 1.56908 6.10692 1.57779 5.18858 1.61975C4.33912 1.65854 3.87837 1.80025 3.57121 1.91979C3.16508 2.07812 2.87454 2.26575 2.56975 2.57054C2.28058 2.85142 2.05819 3.19366 1.919 3.572C1.79946 3.87917 1.65775 4.33992 1.61896 5.18937C1.577 6.10771 1.56829 6.38321 1.56829 8.70833C1.56829 11.0335 1.577 11.309 1.61896 12.2273C1.65775 13.0767 1.79946 13.5375 1.919 13.8447C2.05833 14.2223 2.28079 14.5651 2.56975 14.8461C2.85079 15.1351 3.19358 15.3575 3.57121 15.4969C3.87837 15.6164 4.33912 15.7581 5.18858 15.7969C6.10692 15.8389 6.38162 15.8476 8.70754 15.8476C11.0335 15.8476 11.3082 15.8389 12.2265 15.7969C13.076 15.7581 13.5367 15.6164 13.8439 15.4969C14.25 15.3385 14.5405 15.1509 14.8453 14.8461C15.1343 14.5651 15.3567 14.2223 15.4961 13.8447C15.6156 13.5375 15.7573 13.0767 15.7961 12.2273C15.8381 11.309 15.8468 11.0335 15.8468 8.70833C15.8468 6.38321 15.8381 6.10771 15.7961 5.18937C15.7573 4.33992 15.6156 3.87917 15.4961 3.572C15.3377 3.16587 15.1501 2.87533 14.8453 2.57054C14.5645 2.28137 14.2222 2.05898 13.8439 1.91979C13.5367 1.80025 13.076 1.65854 12.2265 1.61975ZM7.59525 11.3929C8.21644 11.6515 8.90813 11.6864 9.55219 11.4916C10.1963 11.2969 10.7527 10.8846 11.1266 10.3251C11.5004 9.76566 11.6684 9.09377 11.6019 8.42421C11.5354 7.75464 11.2385 7.12894 10.7619 6.65396C10.4581 6.35034 10.0908 6.11785 9.68631 5.97324C9.28186 5.82863 8.85038 5.77549 8.42293 5.81765C7.99549 5.85981 7.5827 5.99622 7.2143 6.21706C6.8459 6.4379 6.53105 6.73767 6.29241 7.0948C6.05377 7.45192 5.89727 7.85752 5.8342 8.28239C5.77113 8.70725 5.80304 9.14081 5.92764 9.55187C6.05223 9.96292 6.26642 10.3412 6.55478 10.6596C6.84313 10.9779 7.19849 11.2284 7.59525 11.3929ZM5.54325 5.54325C5.95889 5.1276 6.45234 4.7979 6.9954 4.57295C7.53847 4.34801 8.12052 4.23223 8.70833 4.23223C9.29614 4.23223 9.8782 4.34801 10.4213 4.57295C10.9643 4.7979 11.4578 5.1276 11.8734 5.54325C12.2891 5.95889 12.6188 6.45234 12.8437 6.9954C13.0687 7.53847 13.1844 8.12052 13.1844 8.70833C13.1844 9.29614 13.0687 9.8782 12.8437 10.4213C12.6188 10.9643 12.2891 11.4578 11.8734 11.8734C11.034 12.7128 9.89547 13.1844 8.70833 13.1844C7.5212 13.1844 6.38268 12.7128 5.54325 11.8734C4.70382 11.034 4.23223 9.89547 4.23223 8.70833C4.23223 7.5212 4.70382 6.38268 5.54325 5.54325ZM14.1772 4.89883C14.2802 4.80167 14.3626 4.68483 14.4197 4.55523C14.4767 4.42563 14.5071 4.2859 14.5092 4.14432C14.5113 4.00274 14.4849 3.86218 14.4317 3.73097C14.3784 3.59977 14.2994 3.48057 14.1993 3.38045C14.0992 3.28032 13.98 3.20131 13.8488 3.14808C13.7176 3.09484 13.577 3.06848 13.4354 3.07054C13.2938 3.07261 13.1541 3.10306 13.0245 3.16009C12.8949 3.21713 12.7781 3.29958 12.6809 3.40258C12.492 3.6029 12.3885 3.86897 12.3925 4.14432C12.3965 4.41967 12.5077 4.68261 12.7024 4.87733C12.8971 5.07206 13.1601 5.18322 13.4354 5.18724C13.7108 5.19125 13.9769 5.0878 14.1772 4.89883Z" fill="#333333"/>
</svg>
