<svg width="24" height="24" viewBox="0 0 24 24" fill="none" xmlns="http://www.w3.org/2000/svg">
<path d="M12.5009 10.95C11.8245 10.95 11.1759 11.2187 10.6977 11.6969C10.2195 12.1751 9.95085 12.8237 9.95085 13.5C9.95085 14.1763 10.2195 14.8249 10.6977 15.3031C11.1759 15.7813 11.8245 16.05 12.5009 16.05C13.1772 16.05 13.8258 15.7813 14.304 15.3031C14.7822 14.8249 15.0509 14.1763 15.0509 13.5C15.0509 12.8237 14.7822 12.1751 14.304 11.6969C13.8258 11.2187 13.1772 10.95 12.5009 10.95ZM12.5009 9.25C13.628 9.25 14.709 9.69777 15.5061 10.4948C16.3031 11.2918 16.7508 12.3728 16.7508 13.5C16.7508 14.6272 16.3031 15.7082 15.5061 16.5052C14.709 17.3022 13.628 17.75 12.5009 17.75C11.3737 17.75 10.2927 17.3022 9.49565 16.5052C8.69862 15.7082 8.25085 14.6272 8.25085 13.5C8.25085 12.3728 8.69862 11.2918 9.49565 10.4948C10.2927 9.69777 11.3737 9.25 12.5009 9.25ZM18.0258 9.0375C18.0258 9.31929 17.9139 9.58954 17.7147 9.7888C17.5154 9.98806 17.2451 10.1 16.9633 10.1C16.6816 10.1 16.4113 9.98806 16.212 9.7888C16.0128 9.58954 15.9008 9.31929 15.9008 9.0375C15.9008 8.75571 16.0128 8.48546 16.212 8.2862C16.4113 8.08694 16.6816 7.975 16.9633 7.975C17.2451 7.975 17.5154 8.08694 17.7147 8.2862C17.9139 8.48546 18.0258 8.75571 18.0258 9.0375ZM12.5009 6.7C10.398 6.7 10.0546 6.70595 9.0762 6.7493C8.4098 6.78075 7.9627 6.87 7.5479 7.0315C7.20096 7.15931 6.88721 7.36354 6.6299 7.62905C6.36408 7.88628 6.15956 8.20003 6.0315 8.54705C5.87 8.96355 5.78075 9.4098 5.75015 10.0754C5.70595 11.0138 5.7 11.3419 5.7 13.5C5.7 15.6038 5.70595 15.9463 5.7493 16.9246C5.78075 17.5902 5.87 18.0382 6.03065 18.4521C6.17515 18.8219 6.34515 19.0879 6.62735 19.3701C6.9138 19.6557 7.17985 19.8265 7.54535 19.9676C7.96525 20.13 8.41235 20.2201 9.07535 20.2507C10.0138 20.2949 10.3419 20.3 12.5 20.3C14.6038 20.3 14.9463 20.294 15.9246 20.2507C16.5893 20.2192 17.0365 20.13 17.4521 19.9694C17.799 19.8415 18.1128 19.6373 18.3701 19.3718C18.6566 19.0862 18.8274 18.8201 18.9685 18.4538C19.13 18.0356 19.2201 17.5885 19.2507 16.9238C19.2949 15.9863 19.3 15.6573 19.3 13.5C19.3 11.3971 19.294 11.0537 19.2507 10.0754C19.2192 9.41065 19.1292 8.96185 18.9685 8.54705C18.8407 8.20011 18.6365 7.88636 18.371 7.62905C18.1137 7.36323 17.8 7.15871 17.453 7.03065C17.0365 6.86915 16.5893 6.7799 15.9246 6.7493C14.9871 6.7051 14.659 6.7 12.5 6.7M12.5 5C14.8095 5 15.0976 5.0085 16.0045 5.051C16.9089 5.0935 17.526 5.23545 18.0675 5.44625C18.6285 5.66215 19.1011 5.95455 19.5737 6.4263C20.0061 6.85107 20.3406 7.3651 20.5538 7.9325C20.7637 8.47395 20.9065 9.09105 20.949 9.9963C20.989 10.9024 21 11.1906 21 13.5C21 15.8095 20.9915 16.0976 20.949 17.0037C20.9065 17.9098 20.7637 18.5252 20.5538 19.0675C20.3406 19.6349 20.0061 20.1489 19.5737 20.5737C19.1489 21.0061 18.6349 21.3406 18.0675 21.5538C17.526 21.7637 16.9089 21.9065 16.0045 21.949C15.0976 21.989 14.8095 22 12.5 22C10.1906 22 9.9024 21.9915 8.99545 21.949C8.09105 21.9065 7.4748 21.7637 6.9325 21.5538C6.3651 21.3406 5.85107 21.0061 5.4263 20.5737C4.99391 20.1489 4.65944 19.6349 4.44625 19.0675C4.23545 18.526 4.0935 17.909 4.051 17.0037C4.0102 16.0976 4 15.8095 4 13.5C4 11.1906 4.0085 10.9024 4.051 9.9963C4.0935 9.0902 4.23545 8.4748 4.44625 7.9325C4.65944 7.3651 4.99391 6.85107 5.4263 6.4263C5.85107 5.99391 6.3651 5.65944 6.9325 5.44625C7.47395 5.23545 8.0902 5.0935 8.99545 5.051C9.90325 5.01105 10.1914 5 12.5009 5" fill="black"/>
</svg>
