<svg width="16" height="16" viewBox="0 0 16 16" fill="none" xmlns="http://www.w3.org/2000/svg">
<path d="M1.82333 3.64667C2.83033 3.64667 3.64667 2.83033 3.64667 1.82333C3.64667 0.816334 2.83033 0 1.82333 0C0.816334 0 0 0.816334 0 1.82333C0 2.83033 0.816334 3.64667 1.82333 3.64667Z" fill="#333333"/>
<path d="M5.36833 5.02881V15.1446H8.50917V10.1421C8.50917 8.82214 8.7575 7.54381 10.3942 7.54381C12.0083 7.54381 12.0283 9.05297 12.0283 10.2255V15.1455H15.1708V9.59798C15.1708 6.87298 14.5842 4.77881 11.3992 4.77881C9.87 4.77881 8.845 5.61798 8.42583 6.41214H8.38333V5.02881H5.36833ZM0.25 5.02881H3.39583V15.1446H0.25V5.02881Z" fill="#333333"/>
</svg>
