<svg width="24" height="24" viewBox="0 0 24 24" fill="none" xmlns="http://www.w3.org/2000/svg">
<path fill-rule="evenodd" clip-rule="evenodd" d="M6.31248 6.20703C6.6742 5.84315 6.87314 5.35707 6.86897 4.85199C6.85028 4.36172 6.6404 3.89694 6.28224 3.5527C5.92408 3.20845 5.4447 3.01074 4.94213 3C4.43825 3.01118 3.9575 3.20859 3.597 3.55235C3.2365 3.89612 3.02313 4.36061 3 4.85199C3.00749 5.35649 3.21316 5.83893 3.57456 6.19973C3.93596 6.56052 4.4255 6.77213 4.94213 6.79087C5.45965 6.77899 5.95172 6.56935 6.31248 6.20703ZM4.5832 9.28643C3.76656 9.26878 3.21007 9.25656 3.21007 10.2314V21.0827C3.21007 22.0372 3.74152 22.0182 4.50668 21.9896C4.64581 21.9833 4.79142 21.9797 4.94353 21.9788C5.09656 21.9797 5.24217 21.9833 5.38037 21.9896C6.14275 22.0168 6.66307 22.0372 6.66307 21.0827V10.2328C6.66307 9.25792 6.11771 9.26878 5.30524 9.28779C5.18931 9.2905 5.06874 9.29231 4.94353 9.29322C4.81832 9.29322 4.69775 9.29141 4.58181 9.28779M10.2635 9.30815C9.89347 9.38012 9.65557 9.61094 9.65557 10.2328V21.0827C9.65557 22.0385 10.1661 22.0195 10.9327 21.991C11.0718 21.9847 11.2193 21.981 11.3751 21.9801C11.5309 21.981 11.6789 21.9847 11.8189 21.991C12.5896 22.0182 13.11 22.0385 13.11 21.084V15.2972C13.0803 15.0014 13.1154 14.7029 13.2129 14.4213C13.3104 14.1397 13.4681 13.8816 13.6755 13.664C13.8829 13.4464 14.1354 13.2743 14.4161 13.1591C14.6969 13.0439 14.9995 12.9883 15.3039 12.9958C15.6098 12.978 15.9161 13.0246 16.2019 13.1326C16.4877 13.2405 16.7463 13.4073 16.9601 13.6216C17.174 13.8358 17.338 14.0925 17.4411 14.3741C17.5442 14.6558 17.584 14.9558 17.5577 15.2538V21.0406C17.5577 21.9951 18.0668 21.9761 18.8334 21.9475C18.9725 21.9412 19.12 21.9376 19.2758 21.9367C19.4316 21.9376 19.5796 21.9412 19.7196 21.9475C20.4862 21.9747 20.9954 21.9951 20.9954 21.0406V13.6313C21.0239 13.0231 20.9209 12.4158 20.6931 11.849C20.4653 11.2822 20.1178 10.7685 19.6732 10.3414C19.2286 9.91432 18.6969 9.58333 18.1126 9.36999C17.5283 9.15664 16.9046 9.06572 16.2819 9.10313C15.6477 9.0463 15.0091 9.14957 14.4276 9.40303C13.846 9.6565 13.341 10.0516 12.9611 10.5505C12.9764 10.0155 12.7983 9.3068 12.3545 9.3068C12.2265 9.3068 12.0304 9.30001 11.8078 9.29322C11.2513 9.27693 10.5279 9.25656 10.2635 9.30815Z" fill="black"/>
</svg>
