<svg width="8" height="15" viewBox="0 0 8 15" fill="none" xmlns="http://www.w3.org/2000/svg">
<path fill-rule="evenodd" clip-rule="evenodd" d="M7.69458 6.55762C7.89014 6.75481 8 7.02222 8 7.30104C8 7.57987 7.89014 7.84728 7.69458 8.04447L1.79348 13.9929C1.69725 14.0934 1.58214 14.1735 1.45487 14.2286C1.32761 14.2837 1.19072 14.3127 1.05222 14.3139C0.913706 14.3151 0.776345 14.2885 0.648146 14.2357C0.519946 14.1828 0.403476 14.1047 0.305532 14.006C0.207587 13.9072 0.13013 13.7898 0.0776796 13.6606C0.0252291 13.5314 -0.00116422 13.3929 3.93863e-05 13.2533C0.00124299 13.1137 0.0300196 12.9757 0.0846901 12.8474C0.139361 12.7191 0.21883 12.6031 0.318461 12.5061L5.48206 7.30104L0.318461 2.096C0.128443 1.89768 0.0232993 1.63206 0.0256761 1.35635C0.0280528 1.08065 0.13776 0.81691 0.331168 0.621949C0.524577 0.426988 0.786212 0.3164 1.05972 0.314005C1.33323 0.311609 1.59674 0.417597 1.79348 0.60914L7.69458 6.55762Z" fill="#333333"/>
</svg>
