<?xml version="1.0" encoding="UTF-8"?>
<svg id="Layer_1" xmlns="http://www.w3.org/2000/svg" version="1.1" viewBox="0 0 73 73">
  <!-- Generator: Adobe Illustrator 29.5.0, SVG Export Plug-In . SVG Version: 2.1.0 Build 137)  -->
  <defs>
    <style>
      .st0 {
        fill: #693825;
      }
    </style>
  </defs>
  <path class="st0" d="M30.84,35c1.78-1.12,3.14-2.79,3.88-4.76.75-1.96.83-4.12.25-6.14-.58-2.02-1.81-3.79-3.49-5.05-1.68-1.26-3.72-1.95-5.82-1.95H9.12c-.3,0-.59.12-.81.33-.21.21-.33.5-.33.81v36.5c0,.3.12.59.33.81.21.21.5.33.81.33h17.68c2.52,0,4.95-.88,6.9-2.48,1.94-1.6,3.26-3.83,3.74-6.3.48-2.47.08-5.03-1.12-7.24-1.2-2.21-3.14-3.93-5.48-4.87ZM10.27,19.39h15.4c1.97,0,3.85.78,5.24,2.17,1.39,1.39,2.17,3.28,2.17,5.24s-.78,3.85-2.17,5.24c-1.39,1.39-3.28,2.17-5.24,2.17h-15.4v-14.83ZM26.8,53.61H10.27v-17.11h16.54c2.27,0,4.44.9,6.05,2.51,1.6,1.6,2.51,3.78,2.51,6.05s-.9,4.44-2.51,6.05c-1.6,1.6-3.78,2.51-6.05,2.51ZM46.77,22.81c0-.3.12-.59.33-.81.21-.21.5-.33.81-.33h18.25c.3,0,.59.12.81.33.21.21.33.5.33.81s-.12.59-.33.81c-.21.21-.5.33-.81.33h-18.25c-.3,0-.59-.12-.81-.33-.21-.21-.33-.5-.33-.81ZM57.03,30.8c-2.14,0-4.24.55-6.11,1.59-1.87,1.04-3.44,2.54-4.56,4.36-1.12,1.82-1.76,3.9-1.86,6.03s.36,4.26,1.31,6.17c.96,1.91,2.39,3.55,4.15,4.75,1.77,1.21,3.81,1.94,5.94,2.13,2.13.19,4.27-.16,6.23-1.03,1.95-.87,3.65-2.22,4.94-3.93.18-.24.26-.55.22-.85-.04-.3-.2-.57-.44-.75-.24-.18-.55-.26-.85-.22-.3.04-.57.2-.75.44-1.23,1.65-2.93,2.88-4.88,3.55-1.95.67-4.05.74-6.03.19-1.98-.54-3.76-1.67-5.1-3.23-1.34-1.56-2.18-3.49-2.4-5.54h21.61c.3,0,.59-.12.81-.33.21-.21.33-.5.33-.81,0-3.33-1.33-6.52-3.68-8.87-2.35-2.35-5.54-3.68-8.87-3.68ZM46.83,42.2c.28-2.51,1.47-4.83,3.36-6.52,1.88-1.69,4.32-2.62,6.85-2.62s4.96.93,6.85,2.62c1.88,1.68,3.08,4,3.36,6.52h-20.41Z"/>
</svg>