<svg width="24" height="24" viewBox="0 0 24 24" fill="none" xmlns="http://www.w3.org/2000/svg">
<path d="M2.5 12C2.5 7.522 2.5 5.282 3.891 3.891C5.282 2.5 7.521 2.5 12 2.5C16.478 2.5 18.718 2.5 20.109 3.891C21.5 5.282 21.5 7.521 21.5 12C21.5 16.478 21.5 18.718 20.109 20.109C18.718 21.5 16.479 21.5 12 21.5C7.522 21.5 5.282 21.5 3.891 20.109C2.5 18.718 2.5 16.479 2.5 12Z" stroke="black" stroke-width="1.5" stroke-linecap="round" stroke-linejoin="round"/>
<path d="M6.75 11.9851V9.00512C6.75 8.72312 6.982 8.49512 7.268 8.49512H9.246C9.686 8.49512 10.138 8.57012 10.466 8.86012C10.816 9.17012 11.156 9.65012 11.14 10.2901C11.12 11.0401 10.574 11.9231 9.773 11.9851C8.973 12.0471 8.22 11.9851 6.75 11.9851ZM6.75 11.9851L6.751 14.9681C6.751 15.2501 6.983 15.4781 7.269 15.4811C8.409 15.4911 9.073 15.5321 9.774 15.4781C10.574 15.4171 11.121 14.5321 11.141 13.7841C11.157 13.1431 10.817 12.6631 10.467 12.3531C10.139 12.0631 9.687 11.9871 9.247 11.9871L6.75 11.9851ZM16.796 14.9651C16.358 15.3901 14.224 16.2291 13.455 14.0211C13.375 13.8001 13.311 13.3241 13.348 12.9571M13.348 12.9571C13.412 12.3311 13.688 11.4541 14.712 11.0961C16.18 10.5831 17.103 12.0061 17.342 12.9571H13.348ZM14.59 9.00112H15.95" stroke="black" stroke-width="1.1" stroke-linecap="round" stroke-linejoin="round"/>
</svg>
