<svg width="24" height="24" viewBox="0 0 24 24" fill="none" xmlns="http://www.w3.org/2000/svg">
<path d="M21.1654 11.9999C21.1669 13.2073 20.9291 14.403 20.4658 15.518C20.0026 16.633 19.3229 17.6451 18.4662 18.4959C17.6165 19.3441 16.6079 20.0165 15.4982 20.4747C14.3885 20.933 13.1993 21.1681 11.9987 21.1666C6.93596 21.1666 2.83204 17.0627 2.83204 11.9999C2.82874 9.64947 3.73161 7.3882 5.35287 5.68638C6.20823 4.78368 7.23882 4.06503 8.38155 3.57445C9.52428 3.08386 10.7551 2.83165 11.9987 2.83326C13.1993 2.83178 14.3885 3.06688 15.4982 3.52513C16.6079 3.98338 17.6165 4.6558 18.4662 5.50397C19.3229 6.35477 20.0026 7.36689 20.4658 8.48186C20.9291 9.59683 21.1669 10.7925 21.1654 11.9999Z" stroke="black" stroke-width="1.5" stroke-linecap="round" stroke-linejoin="round"/>
<path d="M21.1657 11.9999C19.8282 11.9999 16.1387 11.4957 12.8364 12.9454C9.24899 14.5207 6.65161 16.9645 5.51953 18.4839" stroke="black" stroke-width="1.5" stroke-linecap="round" stroke-linejoin="round"/>
<path d="M8.5625 3.49976C9.99708 4.82388 13.1275 8.19492 14.2917 11.5417C15.4558 14.8884 15.8867 19.0033 16.1525 20.1744" stroke="black" stroke-width="1.5" stroke-linecap="round" stroke-linejoin="round"/>
<path d="M2.90234 10.8541C4.63393 10.9586 9.21772 11.0525 12.1511 9.79992C15.0844 8.54729 17.6084 6.24325 18.4742 5.51221M3.51926 15.4892C4.32712 17.4443 5.78384 19.0615 7.64426 20.0684" stroke="black" stroke-width="1.5" stroke-linecap="round" stroke-linejoin="round"/>
<path d="M2.83204 11.9999C2.82874 9.64947 3.73161 7.3882 5.35287 5.68638C6.20823 4.78368 7.23882 4.06503 8.38155 3.57445C9.52428 3.08386 10.7551 2.83165 11.9987 2.83326M15.6654 3.59593C16.7095 4.05233 17.6593 4.6994 18.4662 5.50397C19.3229 6.35477 20.0026 7.36689 20.4658 8.48186C20.9291 9.59683 21.1669 10.7925 21.1654 11.9999C21.1654 13.1283 20.9614 14.2096 20.5879 15.2083M11.9987 21.1666C13.1993 21.1681 14.3885 20.933 15.4982 20.4747C16.6079 20.0165 17.6165 19.3441 18.4662 18.4959" stroke="black" stroke-width="1.5" stroke-linecap="round" stroke-linejoin="round"/>
</svg>
