<svg width="24" height="24" viewBox="0 0 24 24" fill="none" xmlns="http://www.w3.org/2000/svg">
<path d="M19 11.9999C19 10.1194 18.411 8.28609 17.3157 6.75751C16.2203 5.22892 14.6736 4.08184 12.8929 3.47737C11.1122 2.8729 9.18685 2.84142 7.3873 3.38733C5.58776 3.93325 4.00442 5.02914 2.85967 6.5211C1.71492 8.01305 1.06627 9.82611 1.00481 11.7056C0.943352 13.5852 1.47218 15.4367 2.51702 17.0003C3.56187 18.5638 5.07023 19.7608 6.83027 20.4231C8.5903 21.0854 10.5136 21.1798 12.33 20.6929" stroke="black" stroke-width="1.5" stroke-linecap="round"/>
<path d="M10 16C12.2091 16 14 14.2091 14 12C14 9.79086 12.2091 8 10 8C7.79086 8 6 9.79086 6 12C6 14.2091 7.79086 16 10 16Z" stroke="black" stroke-width="1.5"/>
<path d="M14 9V13.5C14 14.163 14.2634 14.7989 14.7322 15.2678C15.2011 15.7366 15.837 16 16.5 16C17.163 16 17.7989 15.7366 18.2678 15.2678C18.7366 14.7989 19 14.163 19 13.5V12" stroke="black" stroke-width="1.5" stroke-linecap="round"/>
</svg>
