<svg width="48" height="48" viewBox="0 0 48 48" fill="none" xmlns="http://www.w3.org/2000/svg">
<rect width="48" height="48" fill="white"/>
<rect width="48" height="48" fill="black"/>
<path d="M24 6C33.9414 6 42 14.0586 42 24C42 33.9414 33.9414 42 24 42C14.0586 42 6 33.9414 6 24C6 14.0586 14.0586 6 24 6ZM18.7548 26.5182L18.5748 26.5254C18.4144 26.5441 18.2593 26.5944 18.1185 26.6733C17.9776 26.7522 17.8538 26.8582 17.754 26.9852C17.6543 27.1122 17.5807 27.2577 17.5375 27.4132C17.4942 27.5688 17.4822 27.7314 17.502 27.8916C17.6959 29.4744 18.4609 30.932 19.6533 31.9908C20.8457 33.0496 22.3836 33.6368 23.9782 33.6421C25.5729 33.6474 27.1146 33.0705 28.3141 32.0196C29.5135 30.9688 30.2882 29.5163 30.4926 27.9348C30.5199 27.6189 30.424 27.3048 30.2249 27.058C30.0258 26.8113 29.739 26.6512 29.4245 26.6112C29.11 26.5712 28.7922 26.6544 28.5377 26.8434C28.2832 27.0324 28.1116 27.3126 28.059 27.6252C27.9324 28.6145 27.4489 29.5235 26.6992 30.1814C25.9495 30.8392 24.9853 31.2005 23.988 31.1974C22.9906 31.1943 22.0287 30.827 21.2831 30.1645C20.5375 29.5021 20.0596 28.5901 19.9392 27.6C19.9205 27.4396 19.8702 27.2845 19.7913 27.1437C19.7124 27.0028 19.6064 26.879 19.4794 26.7792C19.3524 26.6795 19.2069 26.6059 19.0514 26.5627C18.8958 26.5194 18.7332 26.5074 18.573 26.5272L18.7548 26.5182ZM16.4652 17.3022C15.7992 17.3022 15.1606 17.5668 14.6897 18.0377C14.2188 18.5086 13.9542 19.1472 13.9542 19.8132C13.9542 20.4792 14.2188 21.1178 14.6897 21.5887C15.1606 22.0596 15.7992 22.3242 16.4652 22.3242C17.1312 22.3242 17.7698 22.0596 18.2407 21.5887C18.7116 21.1178 18.9762 20.4792 18.9762 19.8132C18.9762 19.1472 18.7116 18.5086 18.2407 18.0377C17.7698 17.5668 17.1312 17.3022 16.4652 17.3022ZM31.5348 17.3022C30.8688 17.3022 30.2302 17.5668 29.7593 18.0377C29.2884 18.5086 29.0238 19.1472 29.0238 19.8132C29.0238 20.4792 29.2884 21.1178 29.7593 21.5887C30.2302 22.0596 30.8688 22.3242 31.5348 22.3242C32.2008 22.3242 32.8394 22.0596 33.3103 21.5887C33.7812 21.1178 34.0458 20.4792 34.0458 19.8132C34.0458 19.1472 33.7812 18.5086 33.3103 18.0377C32.8394 17.5668 32.2008 17.3022 31.5348 17.3022Z" fill="white"/>
</svg>
