<?xml version="1.0" encoding="UTF-8"?>
<svg id="Layer_1" xmlns="http://www.w3.org/2000/svg" version="1.1" viewBox="0 0 73 72">
  <!-- Generator: Adobe Illustrator 29.5.0, SVG Export Plug-In . SVG Version: 2.1.0 Build 137)  -->
  <defs>
    <style>
      .st0 {
        fill: #693825;
      }
    </style>
  </defs>
  <path class="st0" d="M36.5,23.63c-2.48,0-4.91.73-6.97,2.09-2.06,1.36-3.67,3.29-4.62,5.55-.95,2.26-1.2,4.75-.71,7.15.48,2.4,1.68,4.61,3.43,6.34,1.75,1.73,3.99,2.91,6.42,3.39,2.43.48,4.96.23,7.25-.7,2.29-.94,4.25-2.52,5.63-4.56,1.38-2.04,2.11-4.43,2.11-6.88,0-3.28-1.33-6.43-3.68-8.75-2.35-2.32-5.54-3.62-8.87-3.63ZM36.5,46.13c-2.03,0-4.02-.59-5.7-1.71-1.69-1.11-3-2.69-3.78-4.54-.78-1.85-.98-3.89-.58-5.85.4-1.96,1.37-3.77,2.81-5.18,1.44-1.42,3.26-2.38,5.26-2.77,1.99-.39,4.06-.19,5.93.58,1.88.77,3.48,2.06,4.61,3.73,1.13,1.67,1.73,3.62,1.73,5.63,0,2.69-1.08,5.26-3.01,7.16-1.93,1.9-4.54,2.97-7.26,2.97ZM50.19,7.88h-27.38c-3.93,0-7.7,1.55-10.48,4.29-2.78,2.74-4.34,6.46-4.35,10.34v27c0,3.88,1.57,7.59,4.35,10.34,2.78,2.74,6.55,4.28,10.48,4.29h27.38c3.93,0,7.7-1.55,10.48-4.29,2.78-2.74,4.34-6.46,4.35-10.34v-27c0-3.88-1.57-7.59-4.35-10.34-2.78-2.74-6.55-4.28-10.48-4.29ZM62.73,49.5c0,3.28-1.33,6.43-3.68,8.75-2.35,2.32-5.54,3.62-8.87,3.63h-27.38c-3.33,0-6.52-1.31-8.87-3.63-2.35-2.32-3.68-5.47-3.68-8.75v-27c0-3.28,1.33-6.43,3.68-8.75,2.35-2.32,5.54-3.62,8.87-3.63h27.38c3.33,0,6.52,1.31,8.87,3.63,2.35,2.32,3.68,5.47,3.68,8.75v27ZM53.61,21.38c0,.44-.13.88-.38,1.25-.25.37-.61.66-1.02.83-.42.17-.88.21-1.32.13-.44-.09-.85-.3-1.17-.62-.32-.31-.54-.72-.62-1.15-.09-.44-.04-.89.13-1.3.17-.41.47-.76.84-1.01.38-.25.82-.38,1.27-.38.61,0,1.19.24,1.61.66.43.42.67.99.67,1.59Z"/>
</svg>