<?xml version="1.0" encoding="UTF-8"?>
<svg id="Layer_1" xmlns="http://www.w3.org/2000/svg" version="1.1" viewBox="0 0 74 74">
  <!-- Generator: Adobe Illustrator 29.5.0, SVG Export Plug-In . SVG Version: 2.1.0 Build 137)  -->
  <defs>
    <style>
      .st0 {
        fill: #693825;
      }
    </style>
  </defs>
  <path class="st0" d="M62.44,8.09H11.56c-.92,0-1.8.37-2.45,1.02-.65.65-1.02,1.53-1.02,2.45v50.88c0,.92.37,1.8,1.02,2.45.65.65,1.53,1.02,2.45,1.02h50.88c.92,0,1.8-.37,2.45-1.02.65-.65,1.02-1.53,1.02-2.45V11.56c0-.92-.37-1.8-1.02-2.45-.65-.65-1.53-1.02-2.45-1.02ZM63.59,62.44c0,.31-.12.6-.34.82s-.51.34-.82.34H11.56c-.31,0-.6-.12-.82-.34-.22-.22-.34-.51-.34-.82V11.56c0-.31.12-.6.34-.82.22-.22.51-.34.82-.34h50.88c.31,0,.6.12.82.34.22.22.34.51.34.82v50.88ZM26.59,32.38v18.5c0,.31-.12.6-.34.82s-.51.34-.82.34-.6-.12-.82-.34-.34-.51-.34-.82v-18.5c0-.31.12-.6.34-.82s.51-.34.82-.34.6.12.82.34.34.51.34.82ZM52.03,40.47v10.41c0,.31-.12.6-.34.82s-.51.34-.82.34-.6-.12-.82-.34-.34-.51-.34-.82v-10.41c0-1.84-.73-3.6-2.03-4.91-1.3-1.3-3.07-2.03-4.91-2.03s-3.6.73-4.91,2.03c-1.3,1.3-2.03,3.07-2.03,4.91v10.41c0,.31-.12.6-.34.82s-.51.34-.82.34-.6-.12-.82-.34-.34-.51-.34-.82v-18.5c0-.31.12-.6.34-.82s.51-.34.82-.34.6.12.82.34.34.51.34.82v1.99c1.24-1.41,2.88-2.41,4.71-2.86,1.82-.45,3.74-.34,5.5.32,1.76.66,3.27,1.85,4.34,3.39,1.07,1.54,1.64,3.38,1.64,5.25ZM27.75,24.28c0,.46-.14.9-.39,1.28s-.62.68-1.04.85c-.42.17-.89.22-1.34.13-.45-.09-.86-.31-1.18-.63-.32-.32-.54-.74-.63-1.18-.09-.45-.04-.91.13-1.34.18-.42.47-.78.85-1.04.38-.25.83-.39,1.28-.39.61,0,1.2.24,1.64.68.43.43.68,1.02.68,1.64Z"/>
</svg>